<?xml version="1.0" encoding="UTF-8"?>
<svg width="1600px" height="1600px" viewBox="0 0 1600 1600" version="1.1" xmlns="http://www.w3.org/2000/svg" xmlns:xlink="http://www.w3.org/1999/xlink">
    <title>Group</title>
    <g id="Page-1" stroke="none" stroke-width="1" fill="none" fill-rule="evenodd">
        <g id="Group" transform="translate(0.000000, 0.000000)">
            <rect id="Rectangle" stroke="#979797" fill="#332F5D" x="0.5" y="0.5" width="1599" height="1599"></rect>
            <g id="Combined-Shape-2" transform="translate(659.000000, 636.000000)" fill="#D8D8D8">
                <path d="M125.333333,281.142857 L125.33321,199.048185 C132.683549,201.638276 140.593355,203.047619 148.833333,203.047619 C187.769408,203.047619 219.333333,171.579633 219.333333,132.761905 C219.333333,93.9441766 187.769408,62.4761905 148.833333,62.4761905 C140.88762,62.4761905 133.248919,63.7866705 126.122824,66.2026616 L125.333155,66.475644 L125.332772,66.1069368 C120.724183,68.7646317 115.3736,70.2857143 109.666667,70.2857143 C104.156135,70.2857143 98.9778497,68.8675254 94.4789913,66.377274 L93.9995864,66.1063748 L93.9992457,88.5811905 L93.9987487,176.94145 L94,328 L80.0127526,328 C53.5816843,328 43.154814,325.385578 33.4575244,320.460265 L32.8458916,320.146123 C32.5404177,319.987518 32.2353507,319.826616 31.9302095,319.663424 C21.7588374,314.223715 13.776285,306.241163 8.33657565,296.06979 C8.17338437,295.764649 8.01248165,295.459582 7.85387705,295.154108 L7.53973483,294.542476 C2.66626725,284.947263 0.0552965143,274.637748 0.00086870587,248.816611 L-1.47226258e-15,80.0127526 C7.39042478e-16,53.5816843 2.61442185,43.154814 7.53973483,33.4575244 L7.85387705,32.8458916 C8.01248165,32.5404177 8.17338437,32.2353507 8.33657565,31.9302095 C13.776285,21.7588374 21.7588374,13.776285 31.9302095,8.33657565 C32.2353507,8.17338437 32.5404177,8.01248165 32.8458916,7.85387705 L33.4575244,7.53973483 C43.0527372,2.66626725 53.362252,0.0552965143 79.1833894,0.00086870587 L201.987247,3.23261097e-15 C228.418316,-1.62269752e-15 238.845186,2.61442185 248.542476,7.53973483 L249.154108,7.85387705 C249.459582,8.01248165 249.764649,8.17338437 250.06979,8.33657565 C260.241163,13.776285 268.223715,21.7588374 273.663424,31.9302095 C273.826616,32.2353507 273.987518,32.5404177 274.146123,32.8458916 L274.460265,33.4575244 C279.385578,43.154814 282,53.5816843 282,80.0127526 L282,234.285 L281.999,234.285 L282,234.331429 C282,260.184667 261.04181,281.142857 235.188571,281.142857 L125.333333,281.142857 Z M148.833333,85.9047619 C174.790717,85.9047619 195.833333,106.883419 195.833333,132.761905 C195.833333,158.64039 174.790717,179.619048 148.833333,179.619048 C140.504104,179.619048 132.680921,177.458989 125.896639,173.670106 L125.333699,173.350607 L125.333699,92.1732027 C132.24669,88.1864905 140.272736,85.9047619 148.833333,85.9047619 Z" id="Combined-Shape"></path>
            </g>
        </g>
    </g>
</svg>