<?xml version="1.0" encoding="UTF-8"?>
<svg width="1024px" height="1024px" viewBox="0 0 1024 1024" version="1.1" xmlns="http://www.w3.org/2000/svg" xmlns:xlink="http://www.w3.org/1999/xlink">
    <title>Rectangle</title>
    <g id="Page-1" stroke="none" stroke-width="1" fill="none" fill-rule="evenodd">
        <rect id="Rectangle" stroke="#979797" fill="#332F5D" x="-287.5" y="-287.5" width="1599" height="1599"></rect>
        <path d="M496.333333,629.142857 L496.33321,547.048185 C503.683549,549.638276 511.593355,551.047619 519.833333,551.047619 C558.769408,551.047619 590.333333,519.579633 590.333333,480.761905 C590.333333,441.944177 558.769408,410.47619 519.833333,410.47619 C511.88762,410.47619 504.248919,411.78667 497.122824,414.202662 L496.333155,414.475644 L496.332772,414.106937 C491.724183,416.764632 486.3736,418.285714 480.666667,418.285714 C475.156135,418.285714 469.97785,416.867525 465.478991,414.377274 L464.999586,414.106375 L464.999246,436.58119 L464.998749,524.94145 L465,676 L451.012753,676 C424.581684,676 414.154814,673.385578 404.457524,668.460265 L403.845892,668.146123 C403.540418,667.987518 403.235351,667.826616 402.93021,667.663424 C392.758837,662.223715 384.776285,654.241163 379.336576,644.06979 C379.173384,643.764649 379.012482,643.459582 378.853877,643.154108 L378.539735,642.542476 C373.666267,632.947263 371.055297,622.637748 371.000869,596.816611 L371,428.012753 C371,401.581684 373.614422,391.154814 378.539735,381.457524 L378.853877,380.845892 C379.012482,380.540418 379.173384,380.235351 379.336576,379.93021 C384.776285,369.758837 392.758837,361.776285 402.93021,356.336576 C403.235351,356.173384 403.540418,356.012482 403.845892,355.853877 L404.457524,355.539735 C414.052737,350.666267 424.362252,348.055297 450.183389,348.000869 L572.987247,348 C599.418316,348 609.845186,350.614422 619.542476,355.539735 L620.154108,355.853877 C620.459582,356.012482 620.764649,356.173384 621.06979,356.336576 C631.241163,361.776285 639.223715,369.758837 644.663424,379.93021 C644.826616,380.235351 644.987518,380.540418 645.146123,380.845892 L645.460265,381.457524 C650.385578,391.154814 653,401.581684 653,428.012753 L653,582.285 L652.999,582.285 L653,582.331429 C653,608.184667 632.04181,629.142857 606.188571,629.142857 L496.333333,629.142857 Z M519.833333,433.904762 C545.790717,433.904762 566.833333,454.883419 566.833333,480.761905 C566.833333,506.64039 545.790717,527.619048 519.833333,527.619048 C511.504104,527.619048 503.680921,525.458989 496.896639,521.670106 L496.333699,521.350607 L496.333699,440.173203 C503.24669,436.186491 511.272736,433.904762 519.833333,433.904762 Z" id="Combined-Shape" fill="#D8D8D8"></path>
    </g>
</svg>